<svg width="18" height="18" viewBox="0 0 18 18" fill="none" xmlns="http://www.w3.org/2000/svg">
<path d="M15 10.875C15.3452 10.875 15.625 11.1548 15.625 11.5V14.5C15.625 14.8452 15.3452 15.125 15 15.125H3C2.65482 15.125 2.375 14.8452 2.375 14.5V11.5C2.375 11.1548 2.65482 10.875 3 10.875C3.34518 10.875 3.625 11.1548 3.625 11.5V13.875H14.375V11.5C14.375 11.1548 14.6548 10.875 15 10.875ZM9 1.875C9.34518 1.875 9.625 2.15482 9.625 2.5V8.49023L12.0576 6.05762C12.3017 5.81354 12.6983 5.81354 12.9424 6.05762C13.1865 6.30169 13.1865 6.69831 12.9424 6.94238L9.44238 10.4424C9.19831 10.6865 8.80169 10.6865 8.55762 10.4424L5.05762 6.94238C4.81354 6.69831 4.81354 6.30169 5.05762 6.05762C5.30169 5.81354 5.69831 5.81354 5.94238 6.05762L8.375 8.49023V2.5C8.375 2.15482 8.65482 1.875 9 1.875Z" fill="#4F4F55"/>
</svg>
